<svg width="46" height="46" viewBox="0 0 46 46" fill="none" xmlns="http://www.w3.org/2000/svg">
<circle cx="23.248" cy="23.0918" r="22.5" fill="url(#paint0_linear_150_457)" fill-opacity="0.1"/>
<path d="M27.7989 23.0918C27.7993 22.559 27.6911 22.0311 27.4804 21.5364C27.4218 21.3764 27.4313 21.2014 27.5071 21.0479C27.5828 20.8943 27.7188 20.7742 27.8868 20.7124C28.0547 20.6506 28.2417 20.6519 28.4086 20.7162C28.5755 20.7805 28.7094 20.9027 28.7826 21.0573C29.0574 21.7047 29.1988 22.395 29.1992 23.0918C29.1986 23.9998 28.9617 24.8939 28.5089 25.6966C28.0561 26.4992 27.4011 27.1862 26.6008 27.6977C25.8006 28.2092 24.8792 28.5299 23.9167 28.6319C22.9542 28.7339 21.9797 28.6142 21.0778 28.283C20.9884 28.2543 20.9062 28.2088 20.836 28.1495C20.7659 28.0901 20.7093 28.0181 20.6696 27.9377C20.63 27.8573 20.6081 27.7702 20.6053 27.6817C20.6025 27.5931 20.6189 27.505 20.6534 27.4225C20.6879 27.3401 20.7399 27.265 20.8062 27.2019C20.8724 27.1388 20.9517 27.0889 21.0391 27.0552C21.1265 27.0216 21.2203 27.0048 21.3148 27.0061C21.4092 27.0073 21.5025 27.0264 21.5889 27.0623C22.2786 27.3155 23.0238 27.407 23.7599 27.3289C24.4959 27.2509 25.2005 27.0055 25.8124 26.6143C26.4244 26.223 26.9252 25.6977 27.2713 25.0838C27.6175 24.4699 27.7986 23.7861 27.7989 23.0918Z" fill="#666666"/>
<path d="M23.2486 18.8253C23.8169 18.825 24.3801 18.9263 24.9079 19.1239C25.0786 19.1788 25.2652 19.1698 25.429 19.0989C25.5928 19.0279 25.721 18.9004 25.7869 18.7429C25.8529 18.5855 25.8514 18.4103 25.7828 18.2538C25.7143 18.0973 25.5839 17.9717 25.419 17.9032C24.7284 17.6455 23.9919 17.513 23.2486 17.5127C22.28 17.5132 21.3261 17.7353 20.4699 18.1598C19.6136 18.5842 18.8808 19.1982 18.3351 19.9484C17.7894 20.6985 17.4473 21.5622 17.3385 22.4645C17.2296 23.3667 17.3574 24.2802 17.7107 25.1256C17.7611 25.2463 17.8485 25.3503 17.9619 25.4244C18.0753 25.4986 18.2096 25.5396 18.3478 25.5424C18.4354 25.5431 18.5222 25.5275 18.6033 25.4964C18.7759 25.4328 18.9145 25.3075 18.9886 25.1482C19.0628 24.9888 19.0665 24.8084 18.9989 24.6466C18.7284 23.999 18.6309 23.2992 18.7149 22.6082C18.7988 21.9172 19.0618 21.2559 19.4808 20.682C19.8998 20.108 20.4621 19.6388 21.1188 19.3152C21.7755 18.9916 22.5067 18.8234 23.2486 18.8253Z" fill="#666666"/>
<path d="M38.9064 22.7636C37.4059 20.3211 35.2862 18.2631 32.7349 16.7716C32.657 16.7181 32.5682 16.6802 32.474 16.6604C32.3798 16.6406 32.2822 16.6393 32.1874 16.6565C32.0926 16.6738 32.0027 16.7092 31.9232 16.7606C31.8437 16.812 31.7764 16.8783 31.7256 16.9552C31.6747 17.0322 31.6414 17.1181 31.6277 17.2077C31.614 17.2973 31.6203 17.3886 31.646 17.4758C31.6718 17.5631 31.7165 17.6444 31.7773 17.7146C31.8382 17.7849 31.914 17.8426 31.9998 17.8841C34.238 19.1944 36.1179 20.9779 37.4887 23.0917C36.0031 25.3875 33.9135 27.2872 31.42 28.6087C28.9265 29.9303 26.1127 30.6294 23.2483 30.639C21.6123 30.6449 19.9844 30.4237 18.4175 29.9827C18.2502 29.9547 18.0778 29.9847 17.9324 30.067C17.787 30.1494 17.6785 30.2784 17.6271 30.4302C17.5757 30.582 17.5849 30.7461 17.653 30.892C17.7211 31.0379 17.8435 31.1556 17.9974 31.2231C21.91 32.3383 26.1109 32.1734 29.9104 30.7555C33.7098 29.3375 36.8821 26.7507 38.9064 23.4199C38.9679 23.3201 39.0002 23.2069 39.0002 23.0917C39.0002 22.9765 38.9679 22.8633 38.9064 22.7636Z" fill="#666666"/>
<path d="M14.1465 29.5093C14.2961 29.5046 14.4402 29.455 14.5576 29.3678C14.6749 29.2807 14.7594 29.1606 14.7985 29.0251C14.8377 28.8896 14.8295 28.746 14.7752 28.6152C14.7208 28.4844 14.6232 28.3734 14.4966 28.2985C12.2583 26.9881 10.3785 25.2046 9.00763 23.0908C10.9156 20.1176 13.828 17.8265 17.2829 16.5812C20.7377 15.3358 24.5373 15.2073 28.0789 16.2162C28.2567 16.2684 28.4493 16.2523 28.6144 16.1714C28.7795 16.0905 28.9036 15.9514 28.9593 15.7847C29.015 15.6181 28.9978 15.4375 28.9114 15.2827C28.8251 15.1279 28.6767 15.0116 28.4989 14.9594C24.5863 13.8442 20.3854 14.0091 16.586 15.4271C12.7865 16.8451 9.61421 19.4318 7.58989 22.7627C7.52844 22.8625 7.49609 22.9756 7.49609 23.0908C7.49609 23.206 7.52844 23.3192 7.58989 23.419C9.09087 25.8602 11.2106 27.9171 13.7614 29.4076C13.8758 29.4774 14.0101 29.5129 14.1465 29.5093Z" fill="#666666"/>
<path d="M34.244 12.7843C34.179 12.7233 34.1018 12.6749 34.0168 12.6418C33.9318 12.6088 33.8407 12.5918 33.7487 12.5918C33.6567 12.5918 33.5656 12.6088 33.4806 12.6418C33.3956 12.6749 33.3184 12.7233 33.2533 12.7843L12.2498 32.4729C12.1847 32.5339 12.133 32.6063 12.0978 32.6859C12.0626 32.7656 12.0444 32.851 12.0444 32.9373C12.0444 33.0235 12.0626 33.1089 12.0978 33.1886C12.133 33.2682 12.1847 33.3406 12.2498 33.4016C12.3833 33.5224 12.5613 33.5905 12.7469 33.5919C12.9322 33.5912 13.1097 33.5215 13.2404 33.3983L34.244 13.7096C34.3744 13.5867 34.4476 13.4203 34.4476 13.247C34.4476 13.0736 34.3744 12.9072 34.244 12.7843Z" fill="#f58220"/>
<defs>
<linearGradient id="paint0_linear_150_457" x1="-0.5842" y1="22.3651" x2="35.7563" y2="22.2911" gradientUnits="userSpaceOnUse">
<stop stop-color="#F58220"/>
<stop offset="1" stop-color="#F58220" stop-opacity="0"/>
</linearGradient>
</defs>
</svg>
