<svg width="46" height="46" viewBox="0 0 46 46" fill="none" xmlns="http://www.w3.org/2000/svg">
<circle cx="23.0361" cy="23.0918" r="22.5" fill="url(#paint0_linear_150_454)" fill-opacity="0.1"/>
<g clip-path="url(#clip0_150_454)">
<path d="M22.9124 22.879H21.9178C21.8123 22.8761 21.7083 22.9054 21.62 22.9628C21.5316 23.0202 21.4631 23.103 21.4235 23.2002C21.382 23.2985 21.3716 23.407 21.3937 23.5113C21.4158 23.6156 21.4693 23.7108 21.5471 23.7842L24.0128 26.1203C24.1135 26.2163 24.2485 26.2687 24.3881 26.266C24.5277 26.2633 24.6605 26.2056 24.7573 26.1057C24.854 26.0058 24.9068 25.8718 24.9041 25.7333C24.9013 25.5947 24.8432 25.4629 24.7425 25.3669L23.2066 23.9069C23.595 23.8536 23.9591 23.6886 24.254 23.4322C24.549 23.1759 24.7617 22.8394 24.8661 22.4643H25.4075C25.4814 22.4721 25.556 22.4644 25.6267 22.4416C25.6973 22.4189 25.7623 22.3817 25.8175 22.3324C25.8727 22.2831 25.9169 22.2228 25.9471 22.1555C25.9773 22.0882 25.9929 22.0153 25.9929 21.9416C25.9929 21.8679 25.9773 21.7951 25.9471 21.7278C25.9169 21.6604 25.8727 21.6002 25.8175 21.5509C25.7623 21.5016 25.6973 21.4644 25.6267 21.4417C25.556 21.4189 25.4814 21.4112 25.4075 21.4189H24.8779C24.8365 21.2666 24.7772 21.1196 24.7014 20.9809H25.4193C25.5494 20.9673 25.6698 20.9063 25.7573 20.8098C25.8448 20.7133 25.8932 20.5881 25.8932 20.4582C25.8932 20.3284 25.8448 20.2032 25.7573 20.1067C25.6698 20.0102 25.5494 19.9492 25.4193 19.9355H22.9359H21.9355C21.8616 19.9278 21.787 19.9355 21.7163 19.9583C21.6457 19.981 21.5807 20.0182 21.5255 20.0675C21.4703 20.1168 21.4261 20.177 21.3959 20.2444C21.3657 20.3117 21.3501 20.3845 21.3501 20.4582C21.3501 20.5319 21.3657 20.6048 21.3959 20.6721C21.4261 20.7394 21.4703 20.7997 21.5255 20.849C21.5807 20.8983 21.6457 20.9355 21.7163 20.9582C21.787 20.9809 21.8616 20.9887 21.9355 20.9809H22.93C23.091 20.9823 23.2492 21.0236 23.39 21.1011C23.5308 21.1787 23.6498 21.2899 23.7362 21.4248H21.9296C21.8601 21.4232 21.791 21.4355 21.7264 21.461C21.6618 21.4865 21.6031 21.5247 21.5537 21.5732C21.5042 21.6217 21.4652 21.6795 21.4388 21.7433C21.4123 21.8072 21.3992 21.8756 21.4 21.9446C21.3992 22.0133 21.4122 22.0815 21.4381 22.1453C21.4641 22.209 21.5026 22.267 21.5513 22.3159C21.6 22.3648 21.658 22.4036 21.7219 22.4301C21.7858 22.4565 21.8544 22.4702 21.9237 22.4702H23.7304C23.6408 22.6035 23.519 22.7123 23.3761 22.7868C23.2332 22.8613 23.0738 22.899 22.9124 22.8965V22.879Z" fill="#f58220"/>
<path d="M36.3657 29.8635C36.8039 29.406 37.0422 28.7953 37.029 28.1642C37.0158 27.5331 36.752 26.9328 36.2951 26.4937C36.6314 26.1603 36.8609 25.7357 36.9548 25.2732C37.0488 24.8107 37.003 24.331 36.8232 23.8943C36.6434 23.4576 36.3376 23.0833 35.9442 22.8185C35.5508 22.5536 35.0874 22.41 34.612 22.4056H30.1572C30.0734 21.5576 29.8215 20.7344 29.416 19.9834C29.0105 19.2323 28.4594 18.5682 27.7943 18.0293C27.1293 17.4903 26.3635 17.0872 25.5409 16.843C24.7184 16.5987 23.8553 16.5183 23.0013 16.6063C22.9025 16.4548 22.7881 16.3138 22.66 16.1858C22.9911 15.8635 23.2213 15.4531 23.3229 15.0041C23.4246 14.555 23.3933 14.0863 23.2329 13.6545C23.0725 13.2226 22.7898 12.8459 22.4188 12.5697C22.0478 12.2935 21.6043 12.1296 21.1417 12.0977H11.2787C10.6709 12.1377 10.1011 12.4055 9.68476 12.8468C9.26845 13.2882 9.03674 13.8701 9.03659 14.4746C9.0354 14.7948 9.09943 15.112 9.22483 15.407C9.35022 15.7021 9.5344 15.969 9.7663 16.1916C9.30821 16.6335 9.04538 17.2376 9.03545 17.8715C9.02552 18.5054 9.2693 19.1173 9.71334 19.5731L9.7663 19.6257C9.30821 20.0675 9.04538 20.6716 9.03545 21.3055C9.02552 21.9394 9.2693 22.5514 9.71334 23.0071L9.7663 23.0655C9.30821 23.5074 9.04538 24.1115 9.03545 24.7454C9.02552 25.3793 9.2693 25.9912 9.71334 26.447C9.46763 26.737 9.28318 27.0731 9.17096 27.4353C9.05875 27.7975 9.02105 28.1784 9.06012 28.5553C9.13434 29.0699 9.37372 29.5471 9.74276 29.9161C9.51893 30.124 9.3407 30.3755 9.2192 30.6548C9.0977 30.9342 9.03553 31.2354 9.03659 31.5397V31.855C9.03581 32.1493 9.09354 32.4407 9.20646 32.7128C9.31938 32.9849 9.48528 33.2321 9.69465 33.4404C9.90402 33.6488 10.1527 33.8141 10.4266 33.9268C10.7004 34.0396 10.994 34.0977 11.2905 34.0977H21.124C21.7218 34.0977 22.2951 33.862 22.7178 33.4425C23.1404 33.023 23.3779 32.4541 23.3779 31.8609V31.5397C23.379 31.2354 23.3168 30.9342 23.1953 30.6548C23.0738 30.3755 22.8956 30.124 22.6717 29.9161C22.805 29.7868 22.9216 29.6416 23.0189 29.4839H23.2308H23.6721C23.8897 29.4955 24.1078 29.4955 24.3254 29.4839C24.4083 29.6247 24.5091 29.7542 24.6255 29.8694C24.4156 30.0746 24.2487 30.3192 24.1346 30.5888C24.0204 30.8585 23.9613 31.1479 23.9605 31.4404V31.7616C23.9621 32.3543 24.2 32.9224 24.6224 33.3415C25.0447 33.7607 25.6171 33.9968 26.2144 33.9984H34.7827C35.38 33.9968 35.9524 33.7607 36.3747 33.3415C36.7971 32.9224 37.035 32.3543 37.0366 31.7616V31.4404C37.0352 31.1466 36.9752 30.856 36.86 30.5854C36.7449 30.3147 36.5769 30.0694 36.3657 29.8635ZM30.1513 23.743H34.6003C34.7432 23.7323 34.8869 23.751 35.0222 23.798C35.1576 23.8449 35.2817 23.9191 35.3868 24.0159C35.492 24.1127 35.5758 24.2299 35.6332 24.3603C35.6905 24.4907 35.7201 24.6315 35.7201 24.7738C35.7201 24.9161 35.6905 25.0568 35.6332 25.1873C35.5758 25.3177 35.492 25.4349 35.3868 25.5317C35.2817 25.6285 35.1576 25.7026 35.0222 25.7496C34.8869 25.7966 34.7432 25.8153 34.6003 25.8046H29.5629C29.8758 25.1556 30.0749 24.4584 30.1513 23.743ZM11.4494 13.4409H20.9592C21.0985 13.4408 21.2364 13.4685 21.3648 13.5223C21.4931 13.576 21.6093 13.6548 21.7064 13.7539C21.8035 13.853 21.8796 13.9704 21.9302 14.0993C21.9808 14.2281 22.0048 14.3656 22.0009 14.5038C22.0009 14.6393 21.9739 14.7734 21.9215 14.8985C21.869 15.0236 21.7922 15.1372 21.6954 15.2327C21.5986 15.3282 21.4837 15.4038 21.3574 15.4551C21.2311 15.5064 21.0957 15.5325 20.9592 15.5317H11.4494C11.1874 15.5121 10.9426 15.395 10.7639 15.2039C10.5853 15.0127 10.486 14.7616 10.486 14.5009C10.486 14.2402 10.5853 13.9891 10.7639 13.7979C10.9426 13.6068 11.1874 13.4897 11.4494 13.4701V13.4409ZM11.4494 16.8691H20.9592C21.1143 16.8714 21.2669 16.9073 21.4065 16.9742C20.3251 17.3728 19.3689 18.0477 18.6347 18.9307H11.4494C11.1874 18.9111 10.9426 18.794 10.7639 18.6028C10.5853 18.4117 10.486 18.1606 10.486 17.8999C10.486 17.6392 10.5853 17.3881 10.7639 17.1969C10.9426 17.0058 11.1874 16.8887 11.4494 16.8691ZM11.4494 23.743H17.1871C17.2635 24.4584 17.4626 25.1556 17.7756 25.8046H11.4494C11.1874 25.785 10.9426 25.6679 10.7639 25.4768C10.5853 25.2856 10.486 25.0345 10.486 24.7738C10.486 24.5131 10.5853 24.262 10.7639 24.0708C10.9426 23.8797 11.1874 23.7626 11.4494 23.743ZM10.4254 21.3252C10.4269 21.0561 10.5353 20.7985 10.727 20.6083C10.9187 20.4181 11.1783 20.3105 11.4494 20.309H17.7579C17.4445 20.9577 17.2454 21.655 17.1694 22.3706H11.4494C11.1741 22.3659 10.9119 22.2534 10.7201 22.0575C10.5282 21.8616 10.4223 21.5983 10.4254 21.3252ZM10.8668 27.3522C11.0406 27.2368 11.2462 27.1776 11.4552 27.1829H18.6642L18.8466 27.3873L19.0408 27.5917L19.0879 27.6384C19.1467 27.6968 19.2056 27.7552 19.2703 27.8078L19.3645 27.8954L19.5175 28.018C20.0914 28.4901 20.7448 28.8579 21.4477 29.1043C21.2998 29.1849 21.1338 29.2271 20.9651 29.2269H11.4494C11.2266 29.2291 11.0091 29.1599 10.8291 29.0297C10.649 28.8995 10.5161 28.7151 10.4501 28.504C10.384 28.2928 10.3883 28.0662 10.4623 27.8577C10.5363 27.6491 10.6761 27.4698 10.8609 27.3464L10.8668 27.3522ZM22.0009 31.8492C22.0009 32.08 21.9085 32.3013 21.744 32.4645C21.5796 32.6277 21.3566 32.7194 21.124 32.7194H11.2905C11.0579 32.7194 10.8349 32.6277 10.6705 32.4645C10.506 32.3013 10.4136 32.08 10.4136 31.8492V31.5338C10.4136 31.303 10.506 31.0817 10.6705 30.9185C10.8349 30.7553 11.0579 30.6636 11.2905 30.6636H21.124C21.3566 30.6636 21.5796 30.7553 21.744 30.9185C21.9085 31.0817 22.0009 31.303 22.0009 31.5338V31.8492ZM23.6721 28.1407H23.3838H23.2602H23.1131H22.9424H22.8542L22.6482 28.1056C21.5845 27.8833 20.6187 27.3334 19.8885 26.5343C19.1583 25.7352 18.701 24.7277 18.5818 23.6554V23.6028C18.5818 23.5386 18.5818 23.4743 18.5818 23.4159C18.5791 23.3946 18.5791 23.373 18.5818 23.3517C18.5818 23.2699 18.5818 23.1882 18.5818 23.1123C18.5806 22.1025 18.8813 21.115 19.4457 20.2749C20.0102 19.4347 20.813 18.7795 21.7528 18.3923C22.6925 18.0051 23.7268 17.9032 24.7249 18.0995C25.723 18.2957 26.64 18.7814 27.3599 19.495C28.0798 20.2087 28.5702 21.1182 28.7692 22.1085C28.9681 23.0988 28.8666 24.1254 28.4775 25.0584C28.0884 25.9914 27.4292 26.789 26.5832 27.3501C25.7373 27.9112 24.7426 28.2107 23.7251 28.2107L23.6721 28.1407ZM35.6595 31.7674C35.6595 31.9982 35.5672 32.2195 35.4027 32.3827C35.2383 32.5459 35.0152 32.6376 34.7827 32.6376H26.2144C25.9818 32.6376 25.7588 32.5459 25.5944 32.3827C25.4299 32.2195 25.3376 31.9982 25.3376 31.7674V31.4404C25.3397 31.2354 25.4137 31.0376 25.5469 30.8809C25.6801 30.7242 25.8641 30.6185 26.0673 30.5819C26.171 30.5908 26.2754 30.5908 26.3792 30.5819H34.6003C34.704 30.5906 34.8084 30.5906 34.9122 30.5819C35.1191 30.6137 35.3079 30.7176 35.4448 30.8748C35.5817 31.0321 35.6578 31.2325 35.6595 31.4404V31.7674ZM34.8651 29.2094H26.1261C26.0438 29.1916 25.9645 29.1621 25.8907 29.1218C26.9738 28.7288 27.9337 28.0601 28.6742 27.1829H34.6003C34.8538 27.1824 35.0986 27.2742 35.2885 27.4408C35.4784 27.6075 35.6001 27.8375 35.6305 28.0872C35.661 28.337 35.5981 28.5891 35.4538 28.796C35.3095 29.0028 35.0937 29.1499 34.8474 29.2094H34.8651Z" fill="#666666"/>
</g>
<defs>
<linearGradient id="paint0_linear_150_454" x1="-0.796114" y1="22.3651" x2="35.5443" y2="22.2911" gradientUnits="userSpaceOnUse">
<stop stop-color="#F58220"/>
<stop offset="1" stop-color="#F58220" stop-opacity="0"/>
</linearGradient>
<clipPath id="clip0_150_454">
<rect width="28" height="22" fill="white" transform="translate(9.03613 12.0918)"/>
</clipPath>
</defs>
</svg>
