<svg width="95" height="96" viewBox="0 0 95 96" fill="none" xmlns="http://www.w3.org/2000/svg">
<circle cx="47.5" cy="47.5039" r="47.5" fill="url(#paint0_linear_151_460)" fill-opacity="0.1"/>
<g clip-path="url(#clip0_151_460)">
<path d="M30.9211 73.0038H38.5C38.8769 73.0038 39.2383 72.8532 39.5048 72.585C39.7713 72.3168 39.9211 71.9531 39.9211 71.5739V47.3513C39.9211 46.9721 39.7713 46.6084 39.5048 46.3402C39.2383 46.072 38.8769 45.9214 38.5 45.9214H30.9211C30.5442 45.9214 30.1827 46.072 29.9162 46.3402C29.6497 46.6084 29.5 46.9721 29.5 47.3513V71.5739C29.5 71.9531 29.6497 72.3168 29.9162 72.585C30.1827 72.8532 30.5442 73.0038 30.9211 73.0038ZM31.66 48.133H37.7611V70.7922H31.66V48.133Z" fill="#666666"/>
<path d="M44.1842 39.6396C43.8073 39.6396 43.4459 39.7903 43.1794 40.0585C42.9129 40.3266 42.7632 40.6903 42.7632 41.0696V71.5742C42.7632 71.9535 42.9129 72.3172 43.1794 72.5853C43.4459 72.8535 43.8073 73.0041 44.1842 73.0041H51.7632C52.1401 73.0041 52.5015 72.8535 52.768 72.5853C53.0345 72.3172 53.1842 71.9535 53.1842 71.5742V41.0696C53.1842 40.6903 53.0345 40.3266 52.768 40.0585C52.5015 39.7903 52.1401 39.6396 51.7632 39.6396H44.1842ZM50.8158 70.6972H45.1316V41.9466H50.9106L50.8158 70.6972Z" fill="#666666"/>
<path d="M56.5002 45.3589C56.1233 45.3589 55.7618 45.5095 55.4953 45.7777C55.2288 46.0459 55.0791 46.4096 55.0791 46.7888V71.5738C55.0791 71.9531 55.2288 72.3168 55.4953 72.5849C55.7618 72.8531 56.1233 73.0037 56.5002 73.0037H64.0791C64.456 73.0037 64.8174 72.8531 65.0839 72.5849C65.3504 72.3168 65.5002 71.9531 65.5002 71.5738V46.7888C65.5002 46.4096 65.3504 46.0459 65.0839 45.7777C64.8174 45.5095 64.456 45.3589 64.0791 45.3589H56.5002ZM63.2928 70.8684H57.2865V47.4942H63.2928V70.8684Z" fill="#666666"/>
<path d="M34.7107 40.5926C35.8406 40.5901 36.9235 40.1374 37.7224 39.3334C38.5214 38.5295 38.9713 37.4399 38.9738 36.3029C38.9751 35.7496 38.8656 35.2017 38.6517 34.6919L45.3781 29.6777C46.0985 30.2482 46.9844 30.5663 47.9011 30.5835C48.8177 30.6007 49.7149 30.3161 50.456 29.773L57.0875 33.9007C57.0096 34.2125 56.9683 34.5324 56.9644 34.854C56.9606 35.7028 57.2072 36.5336 57.673 37.2414C58.1387 37.9491 58.8026 38.5019 59.5807 38.8298C60.3588 39.1577 61.2161 39.2459 62.0441 39.0833C62.872 38.9207 63.6334 38.5146 64.2319 37.9164C64.8304 37.3182 65.2391 36.5548 65.4062 35.7228C65.5733 34.8908 65.4913 34.0276 65.1707 33.2424C64.85 32.4573 64.3051 31.7856 63.6049 31.3122C62.9046 30.8389 62.0806 30.5852 61.237 30.5833C60.2899 30.5986 59.3755 30.9344 58.6412 31.5366L52.0665 27.447C52.1768 27.0855 52.2342 26.7098 52.237 26.3317C52.237 25.194 51.7879 24.1029 50.9884 23.2984C50.1889 22.4939 49.1045 22.042 47.9738 22.042C46.8432 22.042 45.7588 22.4939 44.9593 23.2984C44.1598 24.1029 43.7107 25.194 43.7107 26.3317C43.7146 26.6532 43.756 26.9732 43.8338 27.285L36.7475 32.5756C36.1788 32.256 35.5446 32.0722 34.894 32.0382C34.2434 32.0042 33.5938 32.1211 32.9952 32.3797C32.3966 32.6384 31.865 33.0319 31.4415 33.53C31.018 34.0281 30.7138 34.6174 30.5525 35.2525C30.3911 35.8876 30.3769 36.5515 30.5109 37.193C30.6449 37.8345 30.9235 38.4365 31.3253 38.9524C31.7271 39.4684 32.2413 39.8847 32.8283 40.1691C33.4152 40.4534 34.0593 40.5984 34.7107 40.5926ZM61.237 32.8807C61.6286 32.8807 62.0114 32.9975 62.337 33.2165C62.6626 33.4354 62.9164 33.7465 63.0663 34.1106C63.2162 34.4746 63.2554 34.8752 63.179 35.2617C63.1026 35.6482 62.914 36.0032 62.6371 36.2818C62.3602 36.5604 62.0074 36.7502 61.6233 36.8271C61.2392 36.9039 60.8411 36.8645 60.4793 36.7137C60.1175 36.5629 59.8083 36.3075 59.5907 35.9799C59.3731 35.6523 59.257 35.2671 59.257 34.873C59.2595 34.3454 59.4689 33.8401 59.8397 33.467C60.2105 33.0939 60.7126 32.8832 61.237 32.8807ZM47.9738 24.244C48.3767 24.244 48.7705 24.3642 49.1055 24.5895C49.4404 24.8147 49.7015 25.1348 49.8556 25.5093C50.0098 25.8838 50.0501 26.2959 49.9716 26.6934C49.893 27.091 49.699 27.4562 49.4141 27.7428C49.1293 28.0294 48.7663 28.2246 48.3712 28.3037C47.9761 28.3828 47.5666 28.3422 47.1944 28.1871C46.8222 28.032 46.5041 27.7693 46.2803 27.4322C46.0565 27.0952 45.937 26.6989 45.937 26.2936C45.9395 25.7508 46.1549 25.2309 46.5363 24.8471C46.9178 24.4633 47.4344 24.2466 47.9738 24.244ZM34.7107 34.4726C35.0704 34.4726 35.4221 34.58 35.7212 34.7811C36.0204 34.9822 36.2535 35.2681 36.3912 35.6025C36.5289 35.9369 36.5649 36.305 36.4947 36.66C36.4245 37.015 36.2513 37.3412 35.9969 37.5971C35.7425 37.8531 35.4184 38.0274 35.0656 38.098C34.7127 38.1687 34.347 38.1324 34.0146 37.9939C33.6822 37.8554 33.3982 37.6208 33.1983 37.3198C32.9984 37.0188 32.8917 36.6649 32.8917 36.3029C32.8917 35.8175 33.0834 35.352 33.4245 35.0087C33.7656 34.6655 34.2283 34.4726 34.7107 34.4726Z" fill="#f58220"/>
</g>
<defs>
<linearGradient id="paint0_linear_151_460" x1="-2.81252" y1="45.9698" x2="73.9062" y2="45.8136" gradientUnits="userSpaceOnUse">
<stop stop-color="#F58220"/>
<stop offset="1" stop-color="#F58220" stop-opacity="0"/>
</linearGradient>
<clipPath id="clip0_151_460">
<rect width="36" height="51" fill="white" transform="translate(29.5 22.0039)"/>
</clipPath>
</defs>
</svg>
