<svg width="95" height="96" viewBox="0 0 95 96" fill="none" xmlns="http://www.w3.org/2000/svg">
<circle cx="47.5" cy="47.5039" r="47.5" fill="url(#paint0_linear_151_459)" fill-opacity="0.1"/>
<g clip-path="url(#clip0_151_459)">
<path d="M47.8516 44.5443C47.7382 44.5192 47.6223 44.5063 47.5061 44.5059C47.2382 44.505 46.9727 44.556 46.7249 44.6559C46.477 44.7558 46.2516 44.9026 46.0616 45.088C45.8715 45.2734 45.7205 45.4938 45.6172 45.7365C45.5139 45.9792 45.4603 46.2395 45.4594 46.5025C45.4535 46.7795 45.5086 47.0545 45.6211 47.3086C45.7337 47.5627 45.9009 47.7898 46.1112 47.9744C46.222 48.0689 46.3103 48.186 46.37 48.3176C46.4297 48.4492 46.4593 48.592 46.4567 48.736V53.5037C46.4772 53.7555 46.5936 53.9905 46.7826 54.1618C46.9717 54.3332 47.2195 54.4283 47.4768 54.4283C47.7341 54.4283 47.9819 54.3332 48.1709 54.1618C48.36 53.9905 48.4764 53.7555 48.4969 53.5037V48.736C48.4965 48.5933 48.5271 48.4521 48.5867 48.3219C48.6463 48.1917 48.7334 48.0754 48.8423 47.9808C49.1192 47.7282 49.3191 47.4049 49.4198 47.0472C49.5205 46.6895 49.5179 46.3113 49.4125 45.9549C49.307 45.5985 49.1028 45.2779 48.8226 45.0288C48.5424 44.7797 48.1972 44.612 47.8255 44.5443H47.8516Z" fill="#f58220"/>
<path d="M71.9365 58.5018H60.5493C60.669 58.1818 60.7329 57.8443 60.7383 57.5034V41.5045C60.7362 40.8857 60.5389 40.2828 60.1736 39.7785C59.8083 39.2743 59.2928 38.8936 58.6982 38.6886V33.505C58.7342 32.0384 58.4711 30.5796 57.9244 29.2143C57.3777 27.8491 56.5583 26.605 55.5146 25.5552C54.4709 24.5055 53.2239 23.6713 51.8469 23.1017C50.47 22.5322 48.9909 22.2388 47.4967 22.2388C46.0026 22.2388 44.5235 22.5322 43.1466 23.1017C41.7696 23.6713 40.5226 24.5055 39.4789 25.5552C38.4352 26.605 37.6158 27.8491 37.0691 29.2143C36.5224 30.5796 36.2593 32.0384 36.2953 33.505V38.6886C35.7007 38.8936 35.1852 39.2743 34.8199 39.7785C34.4546 40.2828 34.2573 40.8857 34.2552 41.5045V57.5034C34.2574 57.8446 34.3214 58.1826 34.4442 58.5018H23.0505C22.2408 58.5035 21.465 58.8204 20.8931 59.3831C20.3212 59.9458 20 60.7083 20 61.5032V69.5027C20 70.2976 20.3212 71.06 20.8931 71.6227C21.465 72.1854 22.2408 72.5024 23.0505 72.5041H71.9365C72.7472 72.5041 73.5248 72.1879 74.0981 71.625C74.6714 71.0621 74.9935 70.2987 74.9935 69.5027V61.5032C74.9935 60.7072 74.6714 59.9437 74.0981 59.3809C73.5248 58.818 72.7472 58.5018 71.9365 58.5018ZM38.329 33.505C38.3927 31.1593 39.3865 28.9307 41.0989 27.2938C42.8112 25.6568 45.1068 24.7408 47.4967 24.7408C49.8867 24.7408 52.1823 25.6568 53.8946 27.2938C55.6069 28.9307 56.6008 31.1593 56.6645 33.505V38.5031H54.6243V33.505C54.6532 32.5682 54.4902 31.6352 54.145 30.7615C53.7997 29.8877 53.2794 29.0908 52.6147 28.4182C51.9499 27.7455 51.1544 27.2107 50.2753 26.8455C49.3962 26.4804 48.4513 26.2922 47.4967 26.2922C46.5422 26.2922 45.5973 26.4804 44.7182 26.8455C43.839 27.2107 43.0435 27.7455 42.3788 28.4182C41.7141 29.0908 41.1937 29.8877 40.8485 30.7615C40.5033 31.6352 40.3403 32.5682 40.3692 33.505V38.5031H38.329V33.505ZM52.5907 33.505V38.5031H42.4028V33.505C42.45 32.2095 43.0074 30.9826 43.9575 30.0825C44.9077 29.1824 46.1764 28.6794 47.4967 28.6794C48.817 28.6794 50.0858 29.1824 51.036 30.0825C51.9861 30.9826 52.5435 32.2095 52.5907 33.505ZM36.2953 57.5034V41.5045C36.2953 41.3734 36.3216 41.2435 36.3727 41.1224C36.4238 41.0013 36.4987 40.8912 36.5932 40.7985C36.6876 40.7058 36.7997 40.6323 36.923 40.5821C37.0464 40.532 37.1786 40.5061 37.3122 40.5061H57.6813C57.951 40.5061 58.2096 40.6113 58.4003 40.7985C58.591 40.9858 58.6982 41.2397 58.6982 41.5045V57.5034C58.6982 57.7682 58.591 58.0222 58.4003 58.2094C58.2096 58.3966 57.951 58.5018 57.6813 58.5018H37.3122C37.0425 58.5018 36.7838 58.3966 36.5932 58.2094C36.4025 58.0222 36.2953 57.7682 36.2953 57.5034ZM72.9598 69.5027C72.9598 69.6343 72.9333 69.7647 72.8818 69.8862C72.8303 70.0078 72.7548 70.1181 72.6597 70.2109C72.5646 70.3037 72.4517 70.3771 72.3276 70.4269C72.2035 70.4767 72.0706 70.5019 71.9365 70.501H23.0505C22.7808 70.501 22.5222 70.3958 22.3315 70.2086C22.1408 70.0214 22.0337 69.7675 22.0337 69.5027V61.5032C22.0337 61.2384 22.1408 60.9845 22.3315 60.7973C22.5222 60.61 22.7808 60.5049 23.0505 60.5049H71.9365C72.0706 60.504 72.2035 60.5292 72.3276 60.579C72.4517 60.6288 72.5646 60.7022 72.6597 60.795C72.7548 60.8878 72.8303 60.9981 72.8818 61.1197C72.9333 61.2412 72.9598 61.3715 72.9598 61.5032V69.5027Z" fill="#666666"/>
<path d="M32.0456 64.7539H30.9701C30.8861 64.755 30.8039 64.7294 30.7358 64.681C30.6677 64.6325 30.6173 64.5639 30.5921 64.4851L30.2596 63.4804C30.2337 63.4021 30.1831 63.3338 30.1152 63.2854C30.0473 63.237 29.9655 63.2109 29.8816 63.2109C29.7977 63.2109 29.7159 63.237 29.648 63.2854C29.5801 63.3338 29.5295 63.4021 29.5035 63.4804L29.1646 64.4851C29.1385 64.5633 29.0879 64.6314 29.02 64.6797C28.9521 64.728 28.8704 64.754 28.7865 64.7539H27.7176C27.6324 64.7524 27.549 64.7779 27.4796 64.8265C27.4103 64.8751 27.3587 64.9442 27.3324 65.0238C27.3061 65.1034 27.3065 65.1891 27.3336 65.2684C27.3607 65.3477 27.4131 65.4164 27.4829 65.4643L28.3564 66.1042C28.4238 66.1527 28.474 66.2209 28.4998 66.299C28.5255 66.3772 28.5255 66.4613 28.4997 66.5394L28.1673 67.5441C28.1432 67.6216 28.1443 67.7046 28.1704 67.7815C28.1965 67.8583 28.2463 67.9253 28.3129 67.9732C28.3796 68.021 28.4597 68.0473 28.5422 68.0484C28.6248 68.0495 28.7056 68.0253 28.7735 67.9793L29.6469 67.3393C29.7146 67.2895 29.797 67.2625 29.8816 67.2625C29.9662 67.2625 30.0486 67.2895 30.1162 67.3393L30.9832 67.9793C31.051 68.0279 31.1327 68.0541 31.2167 68.0543C31.3006 68.0544 31.3825 68.0285 31.4505 67.9802C31.5185 67.9319 31.5692 67.8637 31.5953 67.7853C31.6214 67.707 31.6216 67.6226 31.5959 67.5441L31.2634 66.5394C31.2377 66.4613 31.2377 66.3772 31.2634 66.299C31.2892 66.2209 31.3394 66.1527 31.4068 66.1042L32.2737 65.4643C32.3431 65.4167 32.3952 65.3486 32.4224 65.2699C32.4497 65.1913 32.4506 65.1061 32.4252 65.0269C32.3997 64.9477 32.3492 64.8785 32.2809 64.8294C32.2127 64.7803 32.1302 64.7538 32.0456 64.7539Z" fill="#666666"/>
<path d="M40.8513 64.7539H39.7758C39.6917 64.755 39.6096 64.7294 39.5415 64.681C39.4734 64.6325 39.423 64.5639 39.3978 64.4851L39.0653 63.4804C39.0393 63.4021 38.9888 63.3338 38.9209 63.2854C38.853 63.237 38.7712 63.2109 38.6873 63.2109C38.6034 63.2109 38.5216 63.237 38.4537 63.2854C38.3858 63.3338 38.3352 63.4021 38.3092 63.4804L37.9768 64.4851C37.9516 64.5639 37.9012 64.6325 37.8331 64.681C37.765 64.7294 37.6828 64.755 37.5988 64.7539H36.5233C36.4401 64.7565 36.3598 64.7842 36.2932 64.8333C36.2267 64.8823 36.1772 64.9504 36.1515 65.0281C36.1259 65.1058 36.1253 65.1894 36.1498 65.2675C36.1743 65.3455 36.2228 65.4143 36.2886 65.4643L37.162 66.1042C37.2295 66.1527 37.2797 66.2209 37.3055 66.299C37.3312 66.3772 37.3312 66.4613 37.3054 66.5394L36.9861 67.5249C36.9603 67.6034 36.9605 67.6878 36.9866 67.7661C37.0127 67.8445 37.0634 67.9127 37.1314 67.961C37.1995 68.0093 37.2813 68.0352 37.3652 68.0351C37.4492 68.0349 37.5309 68.0087 37.5988 67.9601L38.4657 67.3201C38.5334 67.2703 38.6157 67.2434 38.7003 67.2434C38.7849 67.2434 38.8673 67.2703 38.935 67.3201L39.8019 67.9601C39.8697 68.0087 39.9515 68.0349 40.0354 68.0351C40.1193 68.0352 40.2012 68.0093 40.2692 67.961C40.3372 67.9127 40.3879 67.8445 40.414 67.7661C40.4401 67.6878 40.4403 67.6034 40.4146 67.5249L40.0822 66.5202C40.0564 66.4421 40.0564 66.358 40.0822 66.2798C40.1079 66.2017 40.1581 66.1335 40.2256 66.085L41.099 65.4451C41.1583 65.3927 41.2006 65.3242 41.2203 65.2482C41.24 65.1723 41.2364 65.0923 41.21 65.0184C41.1835 64.9444 41.1353 64.8799 41.0714 64.8328C41.0076 64.7857 40.931 64.7583 40.8513 64.7539Z" fill="#666666"/>
<path d="M49.6573 64.7539H48.5818C48.4979 64.7539 48.4162 64.7279 48.3483 64.6797C48.2804 64.6314 48.2298 64.5633 48.2037 64.4851L47.8713 63.4803C47.8472 63.4011 47.7978 63.3316 47.7302 63.2822C47.6627 63.2328 47.5807 63.2061 47.4965 63.2061C47.4123 63.2061 47.3303 63.2328 47.2628 63.2822C47.1952 63.3316 47.1458 63.4011 47.1217 63.4803L46.7632 64.4851C46.7362 64.5628 46.6854 64.6303 46.6177 64.6785C46.55 64.7266 46.4687 64.753 46.3852 64.7539H45.3357C45.2506 64.7524 45.1671 64.7778 45.0978 64.8264C45.0284 64.875 44.9768 64.9442 44.9505 65.0237C44.9243 65.1033 44.9247 65.1891 44.9518 65.2684C44.9789 65.3477 45.0312 65.4163 45.1011 65.4642L45.968 66.1042C46.038 66.1506 46.0901 66.2186 46.1161 66.2975C46.1421 66.3764 46.1404 66.4615 46.1114 66.5394L45.779 67.5441C45.7532 67.6225 45.7534 67.707 45.7795 67.7853C45.8057 67.8636 45.8563 67.9318 45.9244 67.9801C45.9924 68.0284 46.0742 68.0544 46.1582 68.0542C46.2421 68.0541 46.3238 68.0278 46.3917 67.9793L47.2651 67.3393C47.3318 67.29 47.413 67.2633 47.4965 67.2633C47.58 67.2633 47.6612 67.29 47.7279 67.3393L48.6013 67.9793C48.6692 68.0253 48.7501 68.0494 48.8326 68.0483C48.9151 68.0472 48.9953 68.021 49.0619 67.9731C49.1285 67.9253 49.1783 67.8583 49.2044 67.7814C49.2305 67.7045 49.2316 67.6216 49.2075 67.5441L48.8751 66.5394C48.8493 66.4612 48.8493 66.3771 48.8751 66.299C48.9008 66.2209 48.951 66.1527 49.0185 66.1042L49.8919 65.4642C49.9618 65.4163 50.0141 65.3477 50.0412 65.2684C50.0683 65.1891 50.0687 65.1033 50.0425 65.0237C50.0162 64.9442 49.9646 64.875 49.8952 64.8264C49.8259 64.7778 49.7424 64.7524 49.6573 64.7539Z" fill="#666666"/>
<path d="M58.4963 64.7539H57.3883C57.3053 64.7536 57.2246 64.7274 57.1578 64.6791C57.091 64.6307 57.0416 64.5628 57.0167 64.4851L56.6843 63.4804C56.6583 63.4021 56.6077 63.3338 56.5398 63.2854C56.4719 63.237 56.3902 63.2109 56.3062 63.2109C56.2223 63.2109 56.1406 63.237 56.0727 63.2854C56.0048 63.3338 55.9542 63.4021 55.9282 63.4804L55.5958 64.4851C55.5697 64.5633 55.519 64.6314 55.4511 64.6797C55.3832 64.728 55.3015 64.754 55.2177 64.7539H54.1422C54.0593 64.7577 53.9796 64.7869 53.9144 64.8375C53.8492 64.888 53.8018 64.9574 53.7787 65.0357C53.7557 65.1141 53.7583 65.1976 53.7861 65.2744C53.8139 65.3513 53.8655 65.4177 53.9336 65.4643L54.8071 66.1042C54.8746 66.1527 54.9247 66.2209 54.9505 66.299C54.9762 66.3772 54.9762 66.4613 54.9505 66.5394L54.5855 67.5249C54.5614 67.6024 54.5625 67.6854 54.5886 67.7623C54.6146 67.8391 54.6645 67.9061 54.7311 67.954C54.7977 68.0018 54.8778 68.0281 54.9604 68.0292C55.0429 68.0303 55.1237 68.0061 55.1916 67.9601L56.0651 67.3201C56.1318 67.2708 56.213 67.2441 56.2965 67.2441C56.38 67.2441 56.4612 67.2708 56.5279 67.3201L57.4013 67.9601C57.4691 68.0087 57.5509 68.0349 57.6348 68.0351C57.7187 68.0352 57.8006 68.0093 57.8686 67.961C57.9366 67.9127 57.9873 67.8445 58.0134 67.7661C58.0396 67.6878 58.0397 67.6034 58.014 67.5249L57.6816 66.5202C57.6548 66.4422 57.6543 66.3577 57.6801 66.2794C57.7059 66.201 57.7567 66.1329 57.825 66.085L58.6919 65.4451C58.7525 65.3973 58.7975 65.3331 58.8213 65.2604C58.8452 65.1877 58.8468 65.1098 58.826 65.0363C58.8052 64.9627 58.7628 64.8968 58.7043 64.8466C58.6457 64.7964 58.5734 64.7642 58.4963 64.7539Z" fill="#666666"/>
<path d="M67.2761 64.7539H66.2006C66.1165 64.755 66.0344 64.7294 65.9663 64.681C65.8982 64.6325 65.8478 64.5639 65.8226 64.4851L65.4901 63.4804C65.4642 63.4021 65.4136 63.3338 65.3457 63.2854C65.2778 63.237 65.196 63.2109 65.1121 63.2109C65.0282 63.2109 64.9464 63.237 64.8785 63.2854C64.8106 63.3338 64.76 63.4021 64.734 63.4804L64.4016 64.4851C64.3764 64.5639 64.326 64.6325 64.2579 64.681C64.1898 64.7294 64.1076 64.755 64.0236 64.7539H62.9481C62.8649 64.7565 62.7846 64.7842 62.718 64.8333C62.6515 64.8823 62.602 64.9504 62.5764 65.0281C62.5507 65.1058 62.5501 65.1894 62.5746 65.2675C62.5991 65.3455 62.6476 65.4143 62.7134 65.4643L63.5868 66.1042C63.6543 66.1527 63.7045 66.2209 63.7303 66.299C63.756 66.3772 63.756 66.4613 63.7302 66.5394L63.3978 67.5441C63.3721 67.6226 63.3723 67.707 63.3984 67.7853C63.4245 67.8637 63.4752 67.9319 63.5432 67.9802C63.6112 68.0285 63.6931 68.0544 63.777 68.0543C63.861 68.0541 63.9427 68.0279 64.0105 67.9793L64.8774 67.3393C64.9451 67.2895 65.0275 67.2625 65.1121 67.2625C65.1967 67.2625 65.279 67.2895 65.3467 67.3393L66.2137 67.9793C66.2815 68.0279 66.3632 68.0541 66.4472 68.0543C66.5311 68.0544 66.613 68.0285 66.681 67.9802C66.749 67.9319 66.7997 67.8637 66.8258 67.7853C66.8519 67.707 66.8521 67.6226 66.8264 67.5441L66.4939 66.5394C66.4682 66.4613 66.4682 66.3772 66.4939 66.299C66.5197 66.2209 66.5698 66.1527 66.6373 66.1042L67.5108 65.4643C67.5766 65.4143 67.625 65.3455 67.6496 65.2675C67.6741 65.1894 67.6735 65.1058 67.6478 65.0281C67.6222 64.9504 67.5727 64.8823 67.5061 64.8333C67.4396 64.7842 67.3593 64.7565 67.2761 64.7539Z" fill="#666666"/>
</g>
<defs>
<linearGradient id="paint0_linear_151_459" x1="-2.81252" y1="45.9698" x2="73.9062" y2="45.8136" gradientUnits="userSpaceOnUse">
<stop stop-color="#F58220"/>
<stop offset="1" stop-color="#F58220" stop-opacity="0"/>
</linearGradient>
<clipPath id="clip0_151_459">
<rect width="55" height="50" fill="white" transform="translate(20 22.5039)"/>
</clipPath>
</defs>
</svg>
