<svg width="96" height="96" viewBox="0 0 96 96" fill="none" xmlns="http://www.w3.org/2000/svg">
<circle cx="48" cy="47.5039" r="47.5" fill="url(#paint0_linear_151_458)" fill-opacity="0.1"/>
<path d="M66.3239 25.5411C63.0804 22.4984 58.654 20.9531 53.1733 20.9531C47.6925 20.9531 43.2768 22.4984 40.0601 25.5411C36.8434 28.5837 35.1895 32.7681 35.1895 37.9455V52.3677C34.7934 52.3677 34.4081 52.3677 34.0548 52.3677C30.624 52.3465 24.8328 52.9412 24.7686 55.1502V58.007C24.7686 59.0213 25.9782 59.6956 27.6213 60.1311V62.2551C27.6296 62.4886 27.6929 62.7169 27.8063 62.9217C27.9198 63.1264 28.0801 63.3019 28.2743 63.4339C26.9095 63.795 26.2297 64.342 26.2137 65.0535V67.9104C26.2137 70.1353 32.0423 70.73 35.4839 70.73C37.3366 70.7384 39.1861 70.5731 41.0075 70.2362C44.1064 72.7691 48.1956 74.0542 53.1733 74.0542C58.6594 74.0542 63.0804 72.4983 66.3239 69.4291C69.5674 66.3598 71.232 62.1224 71.232 56.8547V37.9455C71.232 32.7681 69.5781 28.5944 66.3239 25.5411ZM34.0548 53.7643C38.813 53.7643 41.6497 54.7041 41.9066 55.1289C41.548 55.66 38.7327 56.5521 34.0816 56.5521C29.3234 56.5521 26.4813 55.6175 26.2297 55.1927C26.4545 54.7041 29.2966 53.7643 34.0548 53.7643ZM57.5622 60.6674V56.791C57.5677 56.7256 57.5677 56.6599 57.5622 56.5945C57.5674 56.5451 57.5674 56.4953 57.5622 56.4459V52.5535C57.5677 52.4864 57.5677 52.4189 57.5622 52.3518C57.5677 52.3006 57.5677 52.249 57.5622 52.1978V48.3108C57.5679 48.2419 57.5679 48.1726 57.5622 48.1037C57.5674 48.0543 57.5674 48.0044 57.5622 47.955V44.0733C57.5677 44.0026 57.5677 43.9316 57.5622 43.8609C57.5622 41.6307 51.7335 41.0306 48.2973 41.0306C47.8745 41.0306 47.4195 41.0306 46.9432 41.0625V37.6481C46.9432 35.6462 47.4784 34.1009 48.6345 32.9274C49.2227 32.3388 49.9298 31.8803 50.7092 31.582C51.4887 31.2836 52.3229 31.1522 53.1572 31.1963C55.1215 31.1963 56.6201 31.7592 57.7548 32.9274C58.8895 34.0956 59.4462 35.6462 59.4462 37.6481V57.3592C59.4462 59.3611 58.9109 60.9063 57.7548 62.0799L57.5461 62.2763V61.0497C57.5516 60.979 57.5516 60.908 57.5461 60.8373C57.557 60.7867 57.5624 60.7351 57.5622 60.6833V60.6674ZM36.8862 66.4554C32.9951 66.2961 30.6882 65.5049 30.4634 65.0801V64.3738C32.5686 64.86 34.7248 65.0953 36.8862 65.0748C37.3358 65.0748 37.8228 65.0748 38.3313 65.0376V65.0801C40.7024 65.0801 44.2188 64.7933 46.1617 63.8853V65.027C45.9102 65.558 43.0735 66.4979 38.3152 66.4979C37.8175 66.4979 37.3518 66.4979 36.8969 66.466L36.8862 66.4554ZM43.2554 54.7732C44.9272 55.0465 46.619 55.1814 48.3134 55.1767C50.6844 55.1767 54.2009 54.8953 56.1384 53.9873V56.568C55.8066 57.099 52.9913 58.007 48.308 58.007C47.0556 58.007 44.7487 57.869 43.3036 57.7203V55.3891C43.3091 55.3184 43.3091 55.2474 43.3036 55.1767C43.3097 55.0405 43.2934 54.9042 43.2554 54.7732ZM44.4865 59.2443C44.6256 59.3292 44.6952 59.393 44.7273 59.4036C44.3527 59.9346 41.5159 60.8267 36.9076 60.8267C36.3724 60.8267 35.8746 60.8267 35.3929 60.7895C38.069 60.678 41.441 60.2213 42.747 59.0744C43.2233 59.1381 43.8335 59.1859 44.4865 59.2443ZM36.9076 62.2498C39.2787 62.2498 42.7951 61.9684 44.7327 61.0603V62.1861C44.4811 62.7171 41.639 63.657 36.8808 63.657C32.1226 63.657 29.2913 62.7224 29.0504 62.2498V61.0444C30.9879 61.963 34.5205 62.2498 36.9076 62.2498ZM46.1564 60.6249V59.6319C46.1619 59.5612 46.1619 59.4902 46.1564 59.4195C46.1564 59.4195 46.1564 59.377 46.1564 59.3505C46.9646 59.393 47.73 59.4195 48.2973 59.4195C50.6684 59.4195 54.1848 59.1381 56.1224 58.23V60.8108C55.7905 61.3418 52.9699 62.2498 48.292 62.2498C48.0457 62.2498 47.8156 62.2498 47.5747 62.2498C47.5908 61.586 47.1037 61.0391 46.1778 60.5984L46.1564 60.6249ZM47.5801 63.6782H48.3134C50.6844 63.6782 54.2009 63.3968 56.1438 62.4888V63.6304C55.8922 64.1614 53.0502 65.0907 48.292 65.0907C48.0511 65.0907 47.8156 65.0907 47.5801 65.0907V63.6782ZM48.3187 46.6912C50.6898 46.6912 54.2063 46.4044 56.1384 45.5017V48.0877C55.8119 48.6188 52.9752 49.5215 48.3187 49.5215C43.5605 49.5215 40.7184 48.5816 40.4776 48.1037C40.4832 48.0525 40.4832 48.0009 40.4776 47.9497V45.4805C42.3937 46.4044 45.9262 46.6912 48.3187 46.6912ZM48.3187 50.9393C50.6898 50.9393 54.2063 50.6578 56.1438 49.7498V52.3358C55.8012 52.8668 52.9859 53.7696 48.3187 53.7696C43.5605 53.7696 40.7184 52.8297 40.4776 52.3518C40.4828 52.3006 40.4828 52.249 40.4776 52.1978V49.7286C42.3937 50.6472 45.9262 50.934 48.3187 50.934V50.9393ZM26.1923 58.007V56.7963C28.1352 57.7203 31.6677 58.007 34.0548 58.007C36.4419 58.007 39.9424 57.7203 41.8799 56.8122V57.938L41.8478 57.9858C41.4678 58.5168 38.6364 59.4142 34.028 59.4142C29.2806 59.4142 26.4385 58.4796 26.1923 58.007ZM29.0504 64.6712V65.0801C29.052 65.2816 29.1015 65.4799 29.1949 65.6589C28.6821 65.5494 28.1869 65.3707 27.723 65.1279C28.1387 64.9077 28.5866 64.7536 29.0504 64.6712ZM35.4732 69.3175C30.715 69.3175 27.8729 68.383 27.632 67.9104V66.5882C29.5963 67.4325 33.4339 67.8732 36.731 67.8732H36.9344C37.4321 67.8732 37.9085 67.8732 38.3474 67.8732C40.0199 67.8759 41.6899 67.7445 43.3411 67.4802V67.8201C43.0574 68.3723 40.2207 69.3175 35.4732 69.3175ZM69.6477 56.8547C69.6477 61.6763 68.1651 65.5208 65.232 68.2927C62.2989 71.0646 58.2365 72.4611 53.1733 72.4611C49.052 72.4611 45.6051 71.5265 42.8968 69.6839C43.994 69.2538 44.7273 68.6644 44.7273 67.8732V67.1988C45.4099 67.0394 46.0635 66.7761 46.6649 66.4182C46.7245 66.4417 46.788 66.4543 46.8522 66.4554C47.3232 66.4554 47.8049 66.4873 48.292 66.4873C51.3374 66.4873 56.2348 66.02 57.332 64.3632C57.9119 64.0357 58.4433 63.63 58.9109 63.1578C60.3293 61.7029 61.0519 59.7434 61.0519 57.3486V37.6481C61.0519 35.2532 60.3347 33.2991 58.9109 31.8388C58.1622 31.0944 57.2652 30.5131 56.2773 30.1318C55.2894 29.7505 54.2322 29.5778 53.1733 29.6245C52.1259 29.5817 51.0812 29.7565 50.106 30.1379C49.1308 30.5192 48.2467 31.0986 47.5105 31.8388C46.0922 33.2938 45.3696 35.2532 45.3696 37.6481V41.1634C42.3081 41.4395 39.0753 42.1829 39.0432 43.8184V52.7394C38.3099 52.612 37.5392 52.527 36.7898 52.4633V37.9455C36.7898 33.2248 38.2617 29.4493 41.168 26.688C44.0743 23.9268 48.11 22.5462 53.1733 22.5462C58.2365 22.5462 62.2722 23.9427 65.2374 26.704C68.2025 29.4652 69.6477 33.2142 69.6477 37.9455V56.8547Z" fill="#666666"/>
<path d="M48.3187 42.4482C52.9912 42.4482 55.8119 43.351 56.1437 43.7864C56.1437 43.7864 56.1437 43.8182 56.1437 43.8342C55.7851 44.3652 52.9752 45.2573 48.324 45.2573C43.5658 45.2573 40.7237 44.3227 40.4722 43.8979C40.713 43.3881 43.5551 42.4482 48.3187 42.4482Z" fill="#f58220"/>
<path d="M26.9381 35.9785H25.557C25.4104 35.9745 25.266 36.0151 25.1433 36.0948C25.0206 36.1745 24.9254 36.2896 24.8705 36.4245C24.8129 36.5611 24.7984 36.7117 24.8291 36.8566C24.8597 37.0014 24.934 37.1336 25.0421 37.2356L28.4664 40.4798C28.6062 40.6131 28.7936 40.6859 28.9875 40.6821C29.1814 40.6783 29.3658 40.5982 29.5002 40.4595C29.6346 40.3208 29.7079 40.1347 29.7041 39.9423C29.7003 39.7499 29.6196 39.5669 29.4798 39.4335L27.3468 37.4059C27.8861 37.3319 28.3918 37.1028 28.8014 36.7467C29.2109 36.3907 29.5064 35.9234 29.6514 35.4026H30.4033C30.5058 35.4134 30.6095 35.4026 30.7076 35.3711C30.8057 35.3395 30.896 35.2878 30.9726 35.2194C31.0493 35.1509 31.1106 35.0672 31.1526 34.9737C31.1945 34.8803 31.2162 34.7791 31.2162 34.6767C31.2162 34.5744 31.1945 34.4732 31.1526 34.3797C31.1106 34.2862 31.0493 34.2025 30.9726 34.1341C30.896 34.0656 30.8057 34.014 30.7076 33.9824C30.6095 33.9508 30.5058 33.9401 30.4033 33.9508H29.6677C29.6102 33.7393 29.5279 33.5351 29.4226 33.3425H30.4196C30.6003 33.3236 30.7675 33.2389 30.889 33.1049C31.0105 32.9709 31.0777 32.797 31.0777 32.6167C31.0777 32.4364 31.0105 32.2625 30.889 32.1284C30.7675 31.9944 30.6003 31.9098 30.4196 31.8908H26.9708H25.5815C25.479 31.88 25.3753 31.8907 25.2772 31.9223C25.1791 31.9539 25.0888 32.0056 25.0121 32.074C24.9355 32.1425 24.8742 32.2262 24.8322 32.3196C24.7902 32.4131 24.7686 32.5143 24.7686 32.6167C24.7686 32.719 24.7902 32.8202 24.8322 32.9137C24.8742 33.0072 24.9355 33.0908 25.0121 33.1593C25.0888 33.2277 25.1791 33.2794 25.2772 33.311C25.3753 33.3426 25.479 33.3533 25.5815 33.3425H26.9627C27.1863 33.3444 27.4059 33.4018 27.6014 33.5095C27.797 33.6171 27.9623 33.7717 28.0823 33.9589H25.5733C25.4768 33.9568 25.3809 33.9739 25.2912 34.0093C25.2015 34.0447 25.1199 34.0976 25.0512 34.165C24.9826 34.2324 24.9283 34.3127 24.8917 34.4013C24.855 34.49 24.8367 34.585 24.8378 34.6808C24.8367 34.7763 24.8547 34.871 24.8908 34.9595C24.9269 35.048 24.9803 35.1286 25.0479 35.1964C25.1156 35.2643 25.1961 35.3182 25.2849 35.355C25.3737 35.3918 25.4689 35.4107 25.5652 35.4107H28.0741C27.9498 35.5958 27.7806 35.747 27.5822 35.8504C27.3837 35.9539 27.1623 36.0063 26.9381 36.0028V35.9785Z" fill="#f58220"/>
<defs>
<linearGradient id="paint0_linear_151_458" x1="-2.31252" y1="45.9698" x2="74.4062" y2="45.8136" gradientUnits="userSpaceOnUse">
<stop stop-color="#F58220"/>
<stop offset="1" stop-color="#F58220" stop-opacity="0"/>
</linearGradient>
</defs>
</svg>
