<svg width="46" height="46" viewBox="0 0 46 46" fill="none" xmlns="http://www.w3.org/2000/svg">
<circle cx="22.9282" cy="23.0918" r="22.5" fill="url(#paint0_linear_150_455)" fill-opacity="0.1"/>
<g clip-path="url(#clip0_150_455)">
<path d="M22.9416 8.84473H22.9074C19.1271 8.84926 15.5032 10.356 12.8325 13.0336C10.1618 15.7113 8.66278 19.3408 8.66504 23.1241C8.66731 26.9075 10.1706 30.5352 12.8446 33.2097C15.5185 35.8841 19.1442 37.3865 22.9245 37.3865C26.7049 37.3865 30.3306 35.8841 33.0045 33.2097C35.6784 30.5352 37.1817 26.9075 37.184 23.1241C37.1863 19.3408 35.6873 15.7113 33.0166 13.0336C30.3458 10.356 26.722 8.84926 22.9416 8.84473V8.84473ZM22.9074 10.2693C25.3813 10.2725 27.8013 10.9924 29.8751 12.3422C31.9489 13.6921 33.5879 15.6139 34.594 17.8757C35.6001 20.1375 35.9304 22.6425 35.5448 25.0881C35.1593 27.5336 34.0744 29.8152 32.4214 31.6571L29.7397 28.9733V20.1042C29.7217 20.0199 29.695 19.9378 29.66 19.8591C29.6382 19.8209 29.6145 19.7838 29.5888 19.748C28.1854 18.2466 26.7819 16.7309 25.3784 15.2237C25.3256 15.1536 25.2562 15.0978 25.1763 15.0614C25.1189 15.0325 25.0575 15.0124 24.9941 15.0015C24.9202 14.9974 24.846 14.9974 24.7721 15.0015H16.7299C16.6119 15.0128 16.4989 15.0555 16.4028 15.1251C16.3068 15.1948 16.231 15.2888 16.1834 15.3975L14.3387 13.5514C16.6892 11.4314 19.7433 10.2616 22.9074 10.2693ZM17.4388 16.6597V16.2864H24.2369V20.1754C24.246 20.3429 24.3174 20.5009 24.4369 20.6185C24.5565 20.736 24.7156 20.8046 24.8831 20.8107H28.4444V27.6769L17.4388 16.6597ZM28.4444 29.5089V29.8935H17.4388V18.4973L28.4444 29.5089ZM16.1435 17.1981V30.5402C16.1498 30.71 16.2198 30.8712 16.3396 30.9916C16.4594 31.112 16.6201 31.1828 16.7897 31.1898H29.0935C29.2252 31.187 29.3531 31.1451 29.461 31.0696C29.5689 30.994 29.652 30.8881 29.6998 30.7653L31.5075 32.5745C29.0655 34.7471 25.8863 35.9038 22.6203 35.8078C19.3542 35.7118 16.2483 34.3705 13.9378 32.0582C11.6274 29.7459 10.2871 26.6375 10.1912 23.3688C10.0953 20.1002 11.2511 16.9184 13.422 14.4744L16.1435 17.1981Z" fill="#666666"/>
<path d="M25.5312 17.29L27.6151 19.5265H25.5312V17.29Z" fill="#f58220"/>
</g>
<defs>
<linearGradient id="paint0_linear_150_455" x1="-0.904024" y1="22.3651" x2="35.4364" y2="22.2911" gradientUnits="userSpaceOnUse">
<stop stop-color="#F58220"/>
<stop offset="1" stop-color="#F58220" stop-opacity="0"/>
</linearGradient>
<clipPath id="clip0_150_455">
<rect width="28.5104" height="28.5104" fill="white" transform="translate(8.67285 8.83691)"/>
</clipPath>
</defs>
</svg>
