<svg width="46" height="46" viewBox="0 0 46 46" fill="none" xmlns="http://www.w3.org/2000/svg">
<circle cx="23.248" cy="23.1992" r="22.5" fill="url(#paint0_linear_150_453)" fill-opacity="0.1"/>
<g clip-path="url(#clip0_150_453)">
<path d="M28.4105 16.9404H19.4858V18.1643H22.8949C23.4583 18.1673 24.0038 18.3668 24.4406 18.7298C24.8773 19.0927 25.1791 19.5972 25.2956 20.1593H19.4858V21.3832H25.2446C25.0893 21.8956 24.7776 22.344 24.355 22.6632C23.9324 22.9824 23.4208 23.1557 22.8949 23.1579H19.942V24.2931L24.8454 30.8532L25.8087 30.0975L21.5445 24.4124H22.8949C23.7445 24.4127 24.5679 24.1124 25.2246 23.5628C25.8813 23.0131 26.3306 22.2482 26.4959 21.3985H28.4105V20.1746H26.535C26.4406 19.4318 26.1265 18.736 25.6347 18.1796H28.4195L28.4105 16.9404Z" fill="#f58220"/>
<path d="M37.449 23.446C37.449 23.3603 37.449 23.2746 37.449 23.189C37.4521 20.1373 36.4787 17.168 34.6764 14.7317C32.8741 12.2954 30.3415 10.5252 27.4629 9.68981C24.5843 8.85445 21.5169 8.99955 18.7266 10.1031C15.9362 11.2066 13.5751 13.2083 12.0018 15.8043C10.4285 18.4003 9.72891 21.4488 10.0092 24.487C10.2894 27.5252 11.5343 30.3873 13.5547 32.6386C15.5751 34.89 18.2608 36.4077 21.2041 36.9614C24.1473 37.5151 27.1874 37.0745 29.8627 35.7065C29.9528 35.6603 30.0311 35.5934 30.0915 35.5111C30.152 35.4288 30.1928 35.3333 30.2108 35.2321C30.2289 35.1309 30.2236 35.0269 30.1955 34.9282C30.1674 34.8294 30.1171 34.7387 30.0488 34.6631L30.0068 34.6172C29.9094 34.5085 29.7796 34.4355 29.6375 34.4095C29.4954 34.3835 29.3489 34.406 29.2205 34.4734C27.3204 35.4395 25.2069 35.8866 23.0867 35.7708C20.6783 35.6434 18.3592 34.8004 16.415 33.3456C14.4708 31.8908 12.9866 29.8878 12.1452 27.5834C11.3039 25.279 11.1422 22.774 11.6801 20.377C12.218 17.9801 13.432 15.796 15.1724 14.094C16.9129 12.3919 19.1037 11.2463 21.4749 10.7983C23.8461 10.3503 26.294 10.6194 28.517 11.5726C30.74 12.5258 32.6409 14.1214 33.9854 16.1627C35.3299 18.2039 36.0593 20.6017 36.0836 23.0605L33.8989 22.4485L35.3094 29.5043L39.9998 24.1436L37.449 23.446Z" fill="#666666"/>
</g>
<defs>
<linearGradient id="paint0_linear_150_453" x1="-0.5842" y1="22.4725" x2="35.7563" y2="22.3985" gradientUnits="userSpaceOnUse">
<stop stop-color="#F58220"/>
<stop offset="1" stop-color="#F58220" stop-opacity="0"/>
</linearGradient>
<clipPath id="clip0_150_453">
<rect width="30" height="28" fill="white" transform="translate(10 9.1875)"/>
</clipPath>
</defs>
</svg>
