<?xml version="1.0" encoding="utf-8"?>
<!-- Generator: Adobe Illustrator 24.1.2, SVG Export Plug-In . SVG Version: 6.00 Build 0)  -->
<svg version="1.1" id="Layer_1" xmlns="http://www.w3.org/2000/svg" xmlns:xlink="http://www.w3.org/1999/xlink" x="0px" y="0px"
	 viewBox="0 0 30 30" style="enable-background:new 0 0 30 30;" xml:space="preserve">
<style type="text/css">
	.st0{fill:#FFFFFF;}
</style>
<path class="st0" d="M9.4,18.1c-2,0-3.6,1.3-4.2,3.1H2.5v2.5h2.7c0.5,1.8,2.2,3.1,4.2,3.1s3.6-1.3,4.2-3.1h14v-2.5h-14
	C13,19.5,11.4,18.1,9.4,18.1z M9.4,24.4c-1,0-1.9-0.8-1.9-1.9s0.8-1.9,1.9-1.9c1,0,1.9,0.8,1.9,1.9S10.4,24.4,9.4,24.4z M20.6,10.6
	c-2,0-3.6,1.3-4.2,3.1h-14v2.5h14c0.5,1.8,2.2,3.1,4.2,3.1s3.6-1.3,4.2-3.1h2.7v-2.5h-2.7C24.3,11.9,22.6,10.6,20.6,10.6z
	 M20.6,16.9c-1,0-1.9-0.8-1.9-1.9s0.8-1.9,1.9-1.9s1.9,0.8,1.9,1.9S21.7,16.9,20.6,16.9z"/>
<path class="st0" d="M16,6.3c-0.5-1.8-2.2-3.1-4.2-3.1S8.2,4.4,7.7,6.3H2.5v2.5h5.2c0.5,1.8,2.2,3.1,4.2,3.1s3.6-1.3,4.2-3.1h11.6
	V6.3H16z M11.9,9.4c-1,0-1.9-0.8-1.9-1.9s0.8-1.9,1.9-1.9s1.9,0.8,1.9,1.9S12.9,9.4,11.9,9.4z"/>
</svg>
