<svg width="96" height="96" viewBox="0 0 96 96" fill="none" xmlns="http://www.w3.org/2000/svg">
<circle cx="48.3291" cy="47.5039" r="47.5" fill="url(#paint0_linear_79_1013)" fill-opacity="0.1"/>
<g clip-path="url(#clip0_79_1013)">
<path d="M48.0681 47.0536H45.9686C45.7457 47.0476 45.5263 47.1093 45.3398 47.2305C45.1532 47.3517 45.0085 47.5266 44.925 47.7317C44.8374 47.9393 44.8154 48.1683 44.862 48.3885C44.9086 48.6087 45.0216 48.8096 45.1859 48.9647L50.3913 53.8964C50.6039 54.0991 50.8888 54.2098 51.1836 54.204C51.4783 54.1982 51.7586 54.0765 51.9629 53.8656C52.1672 53.6546 52.2787 53.3718 52.2729 53.0793C52.267 52.7869 52.1444 52.5086 51.9319 52.3059L48.6893 49.2236C49.5092 49.1111 50.2779 48.7628 50.9005 48.2215C51.5232 47.6803 51.9724 46.97 52.1927 46.1782H53.3357C53.4916 46.1946 53.6492 46.1783 53.7983 46.1303C53.9475 46.0823 54.0847 46.0037 54.2013 45.8997C54.3178 45.7956 54.411 45.6684 54.4748 45.5263C54.5386 45.3842 54.5715 45.2303 54.5715 45.0748C54.5715 44.9192 54.5386 44.7654 54.4748 44.6232C54.411 44.4811 54.3178 44.3539 54.2013 44.2499C54.0847 44.1458 53.9475 44.0672 53.7983 44.0193C53.6492 43.9713 53.4916 43.9549 53.3357 43.9713H52.2176C52.1302 43.6497 52.0051 43.3393 51.8449 43.0466H53.3606C53.6352 43.0177 53.8894 42.8891 54.0741 42.6853C54.2588 42.4816 54.361 42.2172 54.361 41.9431C54.361 41.6691 54.2588 41.4047 54.0741 41.2009C53.8894 40.9972 53.6352 40.8685 53.3606 40.8397H48.1178H46.0058C45.85 40.8233 45.6923 40.8396 45.5432 40.8876C45.3941 40.9356 45.2568 41.0142 45.1403 41.1182C45.0237 41.2223 44.9306 41.3495 44.8668 41.4916C44.803 41.6337 44.77 41.7876 44.77 41.9431C44.77 42.0987 44.803 42.2525 44.8668 42.3947C44.9306 42.5368 45.0237 42.664 45.1403 42.768C45.2568 42.8721 45.3941 42.9506 45.5432 42.9986C45.6923 43.0466 45.85 43.063 46.0058 43.0466H48.1054C48.4454 43.0495 48.7792 43.1367 49.0765 43.3004C49.3737 43.464 49.625 43.6989 49.8074 43.9836H45.9934C45.8467 43.9803 45.7008 44.0063 45.5645 44.0601C45.4281 44.114 45.3041 44.1945 45.1998 44.2969C45.0954 44.3992 45.0129 44.5214 44.9572 44.6561C44.9014 44.7908 44.8736 44.9353 44.8753 45.0809C44.8737 45.2261 44.901 45.3701 44.9559 45.5046C45.0107 45.6392 45.0919 45.7616 45.1947 45.8648C45.2976 45.968 45.42 46.05 45.555 46.1059C45.6899 46.1618 45.8347 46.1906 45.981 46.1906H49.795C49.606 46.4719 49.3488 46.7018 49.0472 46.859C48.7455 47.0162 48.4089 47.0959 48.0681 47.0906V47.0536Z" fill="#f58220"/>
<path d="M76.4688 61.8006C77.3938 60.8347 77.8971 59.5454 77.8692 58.2132C77.8412 56.8809 77.2844 55.6135 76.3198 54.6866C77.0296 53.9826 77.5142 53.0862 77.7125 52.1099C77.9108 51.1336 77.8141 50.121 77.4346 49.199C77.055 48.277 76.4095 47.4869 75.579 46.9278C74.7485 46.3686 73.7701 46.0654 72.7666 46.0561H63.362C63.1851 44.2659 62.6532 42.528 61.7972 40.9425C60.9411 39.357 59.7776 37.955 58.3737 36.8172C56.9698 35.6795 55.3531 34.8283 53.6165 34.3128C51.88 33.7972 50.0579 33.6274 48.255 33.8131C48.0465 33.4933 47.805 33.1958 47.5345 32.9254C48.2334 32.245 48.7195 31.3787 48.9341 30.4307C49.1486 29.4826 49.0827 28.4932 48.7441 27.5815C48.4055 26.6698 47.8087 25.8746 47.0254 25.2915C46.2422 24.7085 45.3059 24.3624 44.3292 24.2949H23.5074C22.2242 24.3794 21.0213 24.9447 20.1424 25.8765C19.2635 26.8082 18.7743 28.0367 18.774 29.3129C18.7715 29.989 18.9067 30.6585 19.1714 31.2814C19.4361 31.9043 19.825 32.4677 20.3145 32.9378C19.3474 33.8706 18.7926 35.1459 18.7716 36.4841C18.7507 37.8224 19.2653 39.1142 20.2027 40.0764L20.3145 40.1874C19.3474 41.1202 18.7926 42.3955 18.7716 43.7338C18.7507 45.072 19.2653 46.3638 20.2027 47.326L20.3145 47.4493C19.3474 48.3821 18.7926 49.6575 18.7716 50.9957C18.7507 52.3339 19.2653 53.6258 20.2027 54.588C19.684 55.2003 19.2946 55.9098 19.0577 56.6744C18.8208 57.439 18.7412 58.2431 18.8237 59.0389C18.9804 60.1253 19.4858 61.1327 20.2648 61.9116C19.7923 62.3505 19.416 62.8815 19.1595 63.4712C18.903 64.0609 18.7718 64.6968 18.774 65.3391V66.0049C18.7724 66.6261 18.8942 67.2414 19.1326 67.8158C19.371 68.3901 19.7213 68.9121 20.1633 69.3519C20.6053 69.7917 21.1304 70.1407 21.7085 70.3787C22.2866 70.6168 22.9063 70.7394 23.5322 70.7394H44.2919C45.5539 70.7394 46.7642 70.2419 47.6565 69.3563C48.5488 68.4707 49.0501 67.2696 49.0501 66.0172V65.3391C49.0524 64.6968 48.9211 64.0609 48.6646 63.4712C48.4081 62.8815 48.0318 62.3505 47.5593 61.9116C47.8406 61.6386 48.0868 61.3322 48.2923 60.9992H48.7395H49.6713C50.1306 61.0238 50.591 61.0238 51.0503 60.9992C51.2253 61.2964 51.4383 61.5699 51.6839 61.813C51.2407 62.2463 50.8885 62.7625 50.6475 63.3318C50.4065 63.9011 50.2817 64.5121 50.2801 65.1295V65.8076C50.2833 67.059 50.7857 68.2582 51.6773 69.1431C52.569 70.028 53.7773 70.5265 55.0383 70.5298H73.1269C74.3879 70.5265 75.5962 70.028 76.4879 69.1431C77.3795 68.2582 77.8818 67.059 77.8851 65.8076V65.1295C77.8822 64.5093 77.7555 63.8959 77.5124 63.3245C77.2693 62.7532 76.9147 62.2352 76.4688 61.8006ZM63.3496 48.8795H72.7418C73.0436 48.857 73.3469 48.8965 73.6326 48.9956C73.9184 49.0948 74.1804 49.2514 74.4023 49.4556C74.6242 49.6599 74.8013 49.9075 74.9224 50.1828C75.0434 50.4581 75.1059 50.7553 75.1059 51.0556C75.1059 51.356 75.0434 51.6532 74.9224 51.9285C74.8013 52.2038 74.6242 52.4514 74.4023 52.6557C74.1804 52.8599 73.9184 53.0165 73.6326 53.1157C73.3469 53.2148 73.0436 53.2543 72.7418 53.2318H62.1073C62.768 51.8618 63.1882 50.3899 63.3496 48.8795ZM23.8677 27.1307H43.9441C44.2381 27.1305 44.5293 27.189 44.8002 27.3025C45.0711 27.416 45.3163 27.5823 45.5213 27.7915C45.7264 28.0007 45.887 28.2486 45.9938 28.5205C46.1006 28.7924 46.1513 29.0829 46.143 29.3746C46.143 29.6606 46.0861 29.9438 45.9754 30.2079C45.8647 30.4719 45.7026 30.7117 45.4982 30.9134C45.2939 31.115 45.0514 31.2746 44.7846 31.3829C44.5179 31.4912 44.2323 31.5462 43.9441 31.5445H23.8677C23.3146 31.5032 22.7977 31.256 22.4206 30.8524C22.0434 30.4489 21.8339 29.9188 21.8339 29.3684C21.8339 28.818 22.0434 28.2879 22.4206 27.8844C22.7977 27.4809 23.3146 27.2336 23.8677 27.1923V27.1307ZM23.8677 34.368H43.9441C44.2713 34.3729 44.5936 34.4486 44.8883 34.5899C42.6053 35.4313 40.5867 36.8561 39.0368 38.7202H23.8677C23.3146 38.6789 22.7977 38.4316 22.4206 38.0281C22.0434 37.6245 21.8339 37.0945 21.8339 36.5441C21.8339 35.9937 22.0434 35.4636 22.4206 35.06C22.7977 34.6565 23.3146 34.4093 23.8677 34.368ZM23.8677 48.8795H35.9806C36.142 50.3899 36.5622 51.8618 37.2229 53.2318H23.8677C23.3146 53.1904 22.7977 52.9432 22.4206 52.5397C22.0434 52.1361 21.8339 51.606 21.8339 51.0556C21.8339 50.5052 22.0434 49.9752 22.4206 49.5716C22.7977 49.1681 23.3146 48.9209 23.8677 48.8795ZM21.706 43.7752C21.7092 43.2072 21.938 42.6634 22.3427 42.2618C22.7474 41.8602 23.2953 41.6331 23.8677 41.6299H37.1857C36.524 42.9995 36.1038 44.4716 35.9433 45.9821H23.8677C23.2866 45.9724 22.7331 45.7348 22.328 45.3213C21.923 44.9077 21.6993 44.3519 21.706 43.7752ZM22.6377 56.499C23.0047 56.2553 23.4387 56.1304 23.8801 56.1415H39.0989L39.484 56.573L39.894 57.0045L39.9934 57.1032C40.1176 57.2265 40.2419 57.3497 40.3785 57.4607L40.5773 57.6457L40.9003 57.9046C42.1119 58.9013 43.4914 59.6776 44.9752 60.1978C44.6631 60.368 44.3126 60.457 43.9565 60.4567H23.8677C23.3974 60.4613 22.9382 60.3153 22.5581 60.0404C22.1781 59.7654 21.8975 59.3762 21.758 58.9305C21.6186 58.4847 21.6276 58.0062 21.7838 57.566C21.9401 57.1258 22.2352 56.7473 22.6253 56.4867L22.6377 56.499ZM46.143 65.9926C46.143 66.4798 45.948 66.9471 45.6009 67.2916C45.2537 67.6361 44.7829 67.8297 44.2919 67.8297H23.5322C23.0413 67.8297 22.5704 67.6361 22.2233 67.2916C21.8761 66.9471 21.6811 66.4798 21.6811 65.9926V65.3268C21.6811 64.8396 21.8761 64.3723 22.2233 64.0278C22.5704 63.6833 23.0413 63.4897 23.5322 63.4897H44.2919C44.7829 63.4897 45.2537 63.6833 45.6009 64.0278C45.948 64.3723 46.143 64.8396 46.143 65.3268V65.9926ZM49.6713 58.1635H49.0626H48.8017H48.4911H48.1308H47.9444L47.5096 58.0895C45.2641 57.6202 43.2251 56.4593 41.6836 54.7723C40.1421 53.0852 39.1766 50.9582 38.925 48.6946V48.5836C38.925 48.448 38.925 48.3124 38.925 48.1891C38.9194 48.1441 38.9194 48.0985 38.925 48.0535C38.925 47.8809 38.925 47.7082 38.925 47.548C38.9225 45.4162 39.5572 43.3316 40.7489 41.5579C41.9405 39.7842 43.6354 38.4011 45.6193 37.5836C47.6031 36.7661 49.7867 36.551 51.8938 36.9654C54.0009 37.3798 55.9368 38.4051 57.4566 39.9116C58.9764 41.4182 60.0118 43.3382 60.4317 45.4288C60.8517 47.5195 60.6374 49.6868 59.8159 51.6565C58.9945 53.6262 57.6028 55.3099 55.8169 56.4945C54.031 57.6791 51.9312 58.3114 49.7831 58.3114L49.6713 58.1635ZM74.978 65.82C74.978 66.3072 74.783 66.7745 74.4358 67.119C74.0887 67.4635 73.6179 67.657 73.1269 67.657H55.0383C54.5473 67.657 54.0765 67.4635 53.7293 67.119C53.3822 66.7745 53.1872 66.3072 53.1872 65.82V65.1295C53.1917 64.6968 53.348 64.2792 53.6291 63.9485C53.9102 63.6177 54.2987 63.3945 54.7277 63.3171C54.9468 63.3359 55.1671 63.3359 55.3861 63.3171H72.7418C72.9609 63.3355 73.1811 63.3355 73.4002 63.3171C73.8371 63.3844 74.2357 63.6036 74.5247 63.9356C74.8137 64.2676 74.9744 64.6908 74.978 65.1295V65.82ZM73.3008 60.4197H54.8519C54.6782 60.3821 54.5108 60.3198 54.355 60.2348C56.6414 59.405 58.6679 57.9934 60.2313 56.1415H72.7418C73.2769 56.1404 73.7939 56.3342 74.1948 56.6861C74.5956 57.0379 74.8525 57.5234 74.9168 58.0507C74.9811 58.5779 74.8483 59.1103 74.5437 59.5469C74.239 59.9835 73.7835 60.2941 73.2636 60.4197H73.3008Z" fill="#666666"/>
</g>
<defs>
<linearGradient id="paint0_linear_79_1013" x1="-1.98342" y1="45.9698" x2="74.7353" y2="45.8136" gradientUnits="userSpaceOnUse">
<stop stop-color="#F58220"/>
<stop offset="1" stop-color="#F58220" stop-opacity="0"/>
</linearGradient>
<clipPath id="clip0_79_1013">
<rect width="59.1111" height="46.4444" fill="white" transform="translate(18.7739 24.2817)"/>
</clipPath>
</defs>
</svg>
